<svg width="2114" height="758" viewBox="0 0 2114 758" fill="none" xmlns="http://www.w3.org/2000/svg">
<path fill-rule="evenodd" clip-rule="evenodd" d="M1.95312e-05 -3.2959e-06H35.23L83.739 153.115H84.281L133.874 -3.2959e-06H168.291L102.167 193.494H64.498L1.95312e-05 -3.2959e-06ZM184.009 -3.2959e-06H214.903V29.268H184.009V-3.2959e-06ZM184.009 53.387H214.903V193.494H184.009V53.387ZM249.32 -3.2959e-06H280.214V71.544H280.756C282.924 68.1113 285.544 65.04 288.615 62.33C291.686 59.62 295.074 57.3165 298.777 55.4195C302.481 53.5225 306.365 52.0772 310.431 51.0835C314.496 50.0898 318.515 49.593 322.49 49.593C333.511 49.593 343.131 51.5352 351.351 55.4195C359.572 59.3039 366.392 64.6335 371.812 71.4085C377.232 78.1835 381.297 86.0876 384.007 95.121C386.717 104.154 388.072 113.82 388.072 124.118C388.072 133.513 386.852 142.636 384.413 151.489C381.974 160.342 378.271 168.155 373.303 174.93C368.334 181.706 362.056 187.125 354.468 191.191C346.88 195.256 337.937 197.288 327.639 197.288C322.942 197.288 318.199 196.972 313.412 196.339C308.624 195.707 304.062 194.488 299.726 192.681C295.39 190.874 291.461 188.526 287.938 185.635C284.415 182.744 281.479 178.95 279.13 174.253H278.588V193.494H249.32V-3.2959e-06ZM357.178 123.576C357.178 117.253 356.365 111.11 354.739 105.148C353.113 99.186 350.674 93.9015 347.422 89.2945C344.17 84.6875 340.105 80.9839 335.227 78.1835C330.349 75.3832 324.748 73.983 318.425 73.983C305.417 73.983 295.616 78.4996 289.022 87.533C282.427 96.5664 279.13 108.581 279.13 123.576C279.13 130.622 279.988 137.171 281.704 143.223C283.421 149.276 285.995 154.47 289.428 158.806C292.861 163.142 296.971 166.575 301.759 169.104C306.546 171.633 312.102 172.898 318.425 172.898C325.471 172.898 331.433 171.453 336.311 168.562C341.189 165.671 345.209 161.923 348.371 157.316C351.532 152.708 353.791 147.469 355.146 141.597C356.501 135.726 357.178 129.719 357.178 123.576ZM510.293 111.11C509.932 106.232 508.893 101.535 507.177 97.018C505.46 92.5013 503.112 88.5719 500.131 85.2295C497.15 81.8872 493.536 79.1772 489.291 77.0995C485.045 75.0218 480.302 73.983 475.063 73.983C469.643 73.983 464.72 74.9315 460.293 76.8285C455.867 78.7255 452.073 81.3452 448.912 84.6875C445.75 88.0299 443.221 91.9593 441.324 96.476C439.427 100.993 438.388 105.871 438.207 111.11H510.293ZM438.207 131.435C438.207 136.855 438.975 142.094 440.511 147.153C442.046 152.212 444.35 156.638 447.421 160.432C450.492 164.226 454.377 167.252 459.074 169.511C463.771 171.769 469.372 172.898 475.876 172.898C484.909 172.898 492.181 170.956 497.692 167.072C503.202 163.187 507.312 157.361 510.022 149.592H539.29C537.664 157.18 534.864 163.955 530.889 169.917C526.914 175.879 522.127 180.892 516.526 184.958C510.925 189.023 504.647 192.094 497.692 194.171C490.736 196.249 483.464 197.288 475.876 197.288C464.855 197.288 455.099 195.481 446.608 191.868C438.117 188.255 430.935 183.196 425.064 176.692C419.192 170.188 414.765 162.419 411.784 153.386C408.803 144.353 407.313 134.416 407.313 123.576C407.313 113.639 408.894 104.2 412.055 95.2565C415.217 86.3135 419.734 78.4545 425.605 71.6795C431.477 64.9045 438.568 59.5297 446.879 55.555C455.19 51.5803 464.584 49.593 475.063 49.593C486.084 49.593 495.975 51.8965 504.737 56.5035C513.5 61.1105 520.772 67.208 526.553 74.796C532.334 82.384 536.535 91.1011 539.155 100.947C541.774 110.794 542.452 120.956 541.187 131.435H438.207ZM696.741 193.494H667.473V174.524H666.931C662.776 182.654 656.723 188.48 648.774 192.003C640.825 195.527 632.424 197.288 623.571 197.288C612.55 197.288 602.93 195.346 594.709 191.462C586.489 187.577 579.669 182.293 574.249 175.608C568.829 168.923 564.764 161.019 562.054 151.895C559.344 142.772 557.989 132.971 557.989 122.492C557.989 109.845 559.705 98.915 563.138 89.701C566.571 80.487 571.132 72.899 576.823 66.937C582.515 60.975 589.018 56.5938 596.335 53.7935C603.652 50.9932 611.105 49.593 618.693 49.593C623.029 49.593 627.455 49.9995 631.972 50.8125C636.489 51.6255 640.825 52.9353 644.98 54.742C649.135 56.5487 652.974 58.8522 656.497 61.6525C660.02 64.4529 662.956 67.75 665.305 71.544H665.847V-3.2959e-06H696.741V193.494ZM588.883 124.931C588.883 130.893 589.651 136.765 591.187 142.546C592.722 148.327 595.071 153.476 598.232 157.993C601.394 162.51 605.414 166.123 610.292 168.833C615.17 171.543 620.951 172.898 627.636 172.898C634.501 172.898 640.418 171.453 645.386 168.562C650.355 165.671 654.42 161.877 657.581 157.18C660.743 152.483 663.092 147.198 664.627 141.326C666.163 135.455 666.931 129.448 666.931 123.305C666.931 107.768 663.453 95.6631 656.497 86.991C649.542 78.319 640.102 73.983 628.178 73.983C620.951 73.983 614.854 75.4735 609.885 78.4545C604.917 81.4355 600.852 85.3198 597.69 90.1075C594.529 94.8952 592.271 100.315 590.916 106.368C589.561 112.42 588.883 118.608 588.883 124.931ZM730.345 53.387H759.342V80.487H759.884C760.787 76.693 762.549 72.9893 765.168 69.376C767.788 65.7626 770.95 62.4655 774.653 59.4845C778.357 56.5035 782.467 54.1097 786.984 52.303C791.501 50.4963 796.108 49.593 800.805 49.593C804.418 49.593 806.902 49.6833 808.257 49.864C809.612 50.0447 811.013 50.2253 812.458 50.406V80.216C810.29 79.8547 808.077 79.5385 805.818 79.2675C803.56 78.9965 801.347 78.861 799.179 78.861C793.94 78.861 789.016 79.8998 784.409 81.9775C779.802 84.0552 775.783 87.1265 772.35 91.1915C768.917 95.2565 766.207 100.27 764.22 106.232C762.233 112.194 761.239 119.059 761.239 126.828V193.494H730.345V53.387ZM826.55 -3.2959e-06H857.444V29.268H826.55V-3.2959e-06ZM826.55 53.387H857.444V193.494H826.55V53.387ZM877.227 53.387H910.831L946.332 160.974H946.874L981.02 53.387H1013L962.863 193.494H928.175L877.227 53.387ZM1127.9 111.11C1127.54 106.232 1126.5 101.535 1124.79 97.018C1123.07 92.5013 1120.72 88.5719 1117.74 85.2295C1114.76 81.8872 1111.15 79.1772 1106.9 77.0995C1102.65 75.0218 1097.91 73.983 1092.67 73.983C1087.25 73.983 1082.33 74.9315 1077.9 76.8285C1073.48 78.7255 1069.68 81.3452 1066.52 84.6875C1063.36 88.0299 1060.83 91.9593 1058.93 96.476C1057.04 100.993 1056 105.871 1055.82 111.11H1127.9ZM1055.82 131.435C1055.82 136.855 1056.58 142.094 1058.12 147.153C1059.66 152.212 1061.96 156.638 1065.03 160.432C1068.1 164.226 1071.99 167.252 1076.68 169.511C1081.38 171.769 1086.98 172.898 1093.48 172.898C1102.52 172.898 1109.79 170.956 1115.3 167.072C1120.81 163.187 1124.92 157.361 1127.63 149.592H1156.9C1155.27 157.18 1152.47 163.955 1148.5 169.917C1144.52 175.879 1139.74 180.892 1134.14 184.958C1128.53 189.023 1122.26 192.094 1115.3 194.171C1108.34 196.249 1101.07 197.288 1093.48 197.288C1082.46 197.288 1072.71 195.481 1064.22 191.868C1055.73 188.255 1048.54 183.196 1042.67 176.692C1036.8 170.188 1032.37 162.419 1029.39 153.386C1026.41 144.353 1024.92 134.416 1024.92 123.576C1024.92 113.639 1026.5 104.2 1029.66 95.2565C1032.83 86.3135 1037.34 78.4545 1043.21 71.6795C1049.09 64.9045 1056.18 59.5297 1064.49 55.555C1072.8 51.5803 1082.19 49.593 1092.67 49.593C1103.69 49.593 1113.58 51.8965 1122.35 56.5035C1131.11 61.1105 1138.38 67.208 1144.16 74.796C1149.94 82.384 1154.14 91.1011 1156.76 100.947C1159.38 110.794 1160.06 120.956 1158.8 131.435H1055.82Z" transform="translate(780.645 280.506)" fill="white"/>
<path fill-rule="evenodd" clip-rule="evenodd" d="M510.978 442.539L510.966 147.519L255.477 0L0 147.5L0.0112305 442.519L255.5 590.039L510.978 442.539ZM395.224 163.075L319.322 399.231L280.791 288.341L319.322 163.075H395.224ZM202.133 163.589L302.522 442.869H217.245L121.714 163.589H202.133Z" transform="translate(148.511 83.4804)" fill="white"/>
</svg>
